
<svg version="1.1" id="Layer_1" xmlns="http://www.w3.org/2000/svg" xmlns:xlink="http://www.w3.org/1999/xlink"
     x="0px" y="0px" width="200px" height="200px" viewBox="0 0 1200 1200" enable-background="new 0 0 1200 1200"
     xml:space="preserve" style="border-radius: 100px;">
<path fill="#539E8A" opacity="1.000000" stroke="none" 
	d="
M556.000000,1201.000000 
	C370.666656,1201.000000 185.833328,1201.000000 1.000000,1201.000000 
	C1.000000,801.000000 1.000000,401.000000 1.000000,1.000000 
	C401.000000,1.000000 801.000000,1.000000 1201.000000,1.000000 
	C1201.000000,401.000000 1201.000000,801.000000 1201.000000,1201.000000 
	C986.166687,1201.000000 771.333313,1201.000000 556.000000,1201.000000 
M1026.000244,668.500000 
	C1026.000244,578.900208 1026.000244,489.300446 1026.000244,399.336609 
	C1023.607910,399.230347 1021.820740,399.081604 1020.033508,399.081451 
	C893.051208,399.070557 766.068909,399.070770 639.086609,399.073578 
	C632.620483,399.073730 632.598572,399.087891 632.598389,405.671844 
	C632.593994,532.487488 632.593872,659.303101 632.598389,786.118774 
	C632.598633,792.627197 632.621216,792.648376 639.223816,792.648621 
	C766.039429,792.652832 892.855103,792.653137 1019.670715,792.639221 
	C1021.624634,792.638977 1023.578552,792.449402 1026.000244,792.324036 
	C1026.000244,751.091431 1026.000244,710.295715 1026.000244,668.500000 
M569.256348,718.511169 
	C573.855469,719.170288 575.626221,717.595703 575.616943,712.560181 
	C575.468384,631.413391 575.514587,550.266296 575.495667,469.119293 
	C575.495178,467.190796 575.253601,465.262390 575.125366,463.347168 
	C477.871674,463.347168 381.142731,463.347168 284.166870,463.347168 
	C284.166870,548.414429 284.166870,633.131226 284.166870,718.511292 
	C379.101807,718.511292 473.707611,718.511292 569.256348,718.511169 
M229.029556,532.464905 
	C243.330856,525.322998 257.663055,518.241455 271.891876,510.957947 
	C273.552277,510.108002 275.459503,508.316895 275.815491,506.654358 
	C276.452362,503.680237 275.994904,500.471771 275.994904,496.279755 
	C242.142487,513.149597 209.161682,529.585144 175.722748,546.248901 
	C213.905762,622.687134 251.881516,698.710449 289.996460,775.012390 
	C320.032501,760.199890 349.335999,745.748596 378.639496,731.297302 
	C368.009399,730.469360 357.696503,730.316467 347.393158,730.563782 
	C344.350555,730.636780 341.103210,731.338379 338.346680,732.611389 
	C325.499115,738.545044 312.794067,744.787048 300.031158,750.904358 
	C291.608063,754.941528 291.599792,754.931946 287.708740,746.270325 
	C287.592285,746.011108 287.694000,745.653809 287.694000,744.967041 
	C296.910767,740.448120 306.252686,735.867798 315.594635,731.287476 
	C304.410950,730.467102 293.475464,730.478821 282.540039,730.462646 
	C276.025604,730.453003 276.019440,730.433289 276.013916,723.915161 
	C276.007202,716.018860 276.012329,708.122559 276.012329,699.675842 
	C272.544159,700.840820 269.959259,701.709106 267.106293,702.667419 
	C241.871658,652.096802 216.789001,601.830750 191.550385,551.252197 
	C204.280670,544.878235 216.328384,538.846008 229.029556,532.464905 
M383.236237,441.814880 
	C377.862640,444.519623 372.489044,447.224335 365.915955,450.532806 
	C384.919525,452.397705 388.865601,451.667084 403.800079,444.111328 
	C411.769226,440.079468 419.765350,436.100861 428.188263,431.878174 
	C430.962067,437.434906 433.359436,442.521545 436.049896,447.448090 
	C436.822083,448.862061 438.317810,450.602783 439.696716,450.818237 
	C442.892517,451.317657 446.219574,450.977142 450.519012,450.977142 
	C444.575745,439.095703 439.043152,428.035248 433.633057,417.219666 
	C432.676514,417.219666 432.295746,417.106049 432.037292,417.235870 
	C415.980316,425.299469 399.933380,433.383026 383.236237,441.814880 
M610.155457,898.945129 
	C614.576721,897.777161 616.662231,894.870300 615.687378,890.426880 
	C614.823425,886.489197 611.965637,884.525757 607.911377,885.083069 
	C604.059631,885.612610 602.010132,888.223511 602.083496,891.993774 
	C602.171448,896.518188 604.663696,899.013550 610.155457,898.945129 
z"/>
<path fill="#F6C5BE" opacity="1.000000" stroke="none" 
	d="
M1026.000244,669.000000 
	C1026.000244,710.295715 1026.000244,751.091431 1026.000244,792.324036 
	C1023.578552,792.449402 1021.624634,792.638977 1019.670715,792.639221 
	C892.855103,792.653137 766.039429,792.652832 639.223816,792.648621 
	C632.621216,792.648376 632.598633,792.627197 632.598389,786.118774 
	C632.593872,659.303101 632.593994,532.487488 632.598389,405.671844 
	C632.598572,399.087891 632.620483,399.073730 639.086609,399.073578 
	C766.068909,399.070770 893.051208,399.070557 1020.033508,399.081451 
	C1021.820740,399.081604 1023.607910,399.230347 1026.000244,399.336609 
	C1026.000244,489.300446 1026.000244,578.900208 1026.000244,669.000000 
M837.584106,689.906982 
	C830.732056,683.538391 822.665039,680.212769 813.288391,679.727051 
	C797.289429,678.898193 782.752502,687.816711 776.277893,702.686157 
	C769.850220,717.447510 773.359680,735.663574 784.726135,746.538940 
	C795.678955,757.018433 814.376648,760.035095 827.963806,753.514771 
	C852.872986,741.561157 857.772583,711.115295 837.584106,689.906982 
z"/>
<path fill="#F5C5BE" opacity="1.000000" stroke="none" 
	d="
M568.784912,718.511230 
	C473.707611,718.511292 379.101807,718.511292 284.166870,718.511292 
	C284.166870,633.131226 284.166870,548.414429 284.166870,463.347168 
	C381.142731,463.347168 477.871674,463.347168 575.125366,463.347168 
	C575.253601,465.262390 575.495178,467.190796 575.495667,469.119293 
	C575.514587,550.266296 575.468384,631.413391 575.616943,712.560181 
	C575.626221,717.595703 573.855469,719.170288 568.784912,718.511230 
M444.500000,474.998932 
	C395.101410,474.998932 345.702789,474.998932 296.289551,474.998932 
	C296.289551,532.644775 296.289551,589.493713 296.289551,646.841858 
	C298.711060,646.841858 300.678375,646.841919 302.645660,646.841919 
	C387.432892,646.841919 472.220093,646.842712 557.007324,646.840271 
	C563.511780,646.840088 563.534058,646.829590 563.534851,640.299194 
	C563.541382,587.328003 563.542297,534.356812 563.525879,481.385620 
	C563.525269,479.422577 563.328674,477.459625 563.196655,474.998932 
	C523.718689,474.998932 484.609344,474.998932 444.500000,474.998932 
M487.500031,662.823303 
	C426.689514,662.823364 365.879028,662.823303 305.068512,662.823547 
	C294.950684,662.823547 294.944061,662.824951 295.994812,673.093384 
	C296.040375,673.538818 296.414825,673.950562 296.880707,674.850525 
	C299.021149,674.850525 301.320892,674.850586 303.620636,674.850586 
	C387.255890,674.850647 470.891174,674.850647 554.526428,674.850525 
	C564.331055,674.850464 564.561462,674.594177 563.380554,664.819519 
	C563.322937,664.342407 563.054077,663.890808 562.661377,662.823242 
	C538.061707,662.823242 513.280884,662.823242 487.500031,662.823303 
M401.499817,702.572815 
	C418.108734,702.572815 434.717682,702.572815 451.171356,702.572815 
	C453.205566,691.051208 453.010040,690.810364 442.389435,690.810303 
	C401.569153,690.809875 360.748871,690.809692 319.928589,690.810486 
	C313.264069,690.810608 306.597931,690.741455 299.936371,690.883484 
	C298.636047,690.911133 296.669556,691.396179 296.175293,692.304321 
	C293.299622,697.587891 296.486206,702.569153 302.531128,702.570190 
	C335.187347,702.575745 367.843567,702.572571 401.499817,702.572815 
z"/>
<path fill="#F2C4BD" opacity="1.000000" stroke="none" 
	d="
M228.702820,532.639343 
	C216.328384,538.846008 204.280670,544.878235 191.550385,551.252197 
	C216.789001,601.830750 241.871658,652.096802 267.106293,702.667419 
	C269.959259,701.709106 272.544159,700.840820 276.012329,699.675842 
	C276.012329,708.122559 276.007202,716.018860 276.013916,723.915161 
	C276.019440,730.433289 276.025604,730.453003 282.540039,730.462646 
	C293.475464,730.478821 304.410950,730.467102 315.594635,731.287476 
	C306.252686,735.867798 296.910767,740.448120 287.694000,744.967041 
	C287.694000,745.653809 287.592285,746.011108 287.708740,746.270325 
	C291.599792,754.931946 291.608063,754.941528 300.031158,750.904358 
	C312.794067,744.787048 325.499115,738.545044 338.346680,732.611389 
	C341.103210,731.338379 344.350555,730.636780 347.393158,730.563782 
	C357.696503,730.316467 368.009399,730.469360 378.639496,731.297302 
	C349.335999,745.748596 320.032501,760.199890 289.996460,775.012390 
	C251.881516,698.710449 213.905762,622.687134 175.722748,546.248901 
	C209.161682,529.585144 242.142487,513.149597 275.994904,496.279755 
	C275.994904,500.471771 276.452362,503.680237 275.815491,506.654358 
	C275.459503,508.316895 273.552277,510.108002 271.891876,510.957947 
	C257.663055,518.241455 243.330856,525.322998 228.702820,532.639343 
z"/>
<path fill="#F2C4BD" opacity="1.000000" stroke="none" 
	d="
M383.560852,441.639801 
	C399.933380,433.383026 415.980316,425.299469 432.037292,417.235870 
	C432.295746,417.106049 432.676514,417.219666 433.633057,417.219666 
	C439.043152,428.035248 444.575745,439.095703 450.519012,450.977142 
	C446.219574,450.977142 442.892517,451.317657 439.696716,450.818237 
	C438.317810,450.602783 436.822083,448.862061 436.049896,447.448090 
	C433.359436,442.521545 430.962067,437.434906 428.188263,431.878174 
	C419.765350,436.100861 411.769226,440.079468 403.800079,444.111328 
	C388.865601,451.667084 384.919525,452.397705 365.915955,450.532806 
	C372.489044,447.224335 377.862640,444.519623 383.560852,441.639801 
z"/>
<path fill="#F2C4BD" opacity="1.000000" stroke="none" 
	d="
M609.755249,898.967041 
	C604.663696,899.013550 602.171448,896.518188 602.083496,891.993774 
	C602.010132,888.223511 604.059631,885.612610 607.911377,885.083069 
	C611.965637,884.525757 614.823425,886.489197 615.687378,890.426880 
	C616.662231,894.870300 614.576721,897.777161 609.755249,898.967041 
z"/>
<path fill="#549E8A" opacity="1.000000" stroke="none" 
	d="
M837.855225,690.135742 
	C857.772583,711.115295 852.872986,741.561157 827.963806,753.514771 
	C814.376648,760.035095 795.678955,757.018433 784.726135,746.538940 
	C773.359680,735.663574 769.850220,717.447510 776.277893,702.686157 
	C782.752502,687.816711 797.289429,678.898193 813.288391,679.727051 
	C822.665039,680.212769 830.732056,683.538391 837.855225,690.135742 
z"/>
<path fill="#549E8A" opacity="1.000000" stroke="none" 
	d="
M445.000000,474.998932 
	C484.609344,474.998932 523.718689,474.998932 563.196655,474.998932 
	C563.328674,477.459625 563.525269,479.422577 563.525879,481.385620 
	C563.542297,534.356812 563.541382,587.328003 563.534851,640.299194 
	C563.534058,646.829590 563.511780,646.840088 557.007324,646.840271 
	C472.220093,646.842712 387.432892,646.841919 302.645660,646.841919 
	C300.678375,646.841919 298.711060,646.841858 296.289551,646.841858 
	C296.289551,589.493713 296.289551,532.644775 296.289551,474.998932 
	C345.702789,474.998932 395.101410,474.998932 445.000000,474.998932 
M360.612518,556.111694 
	C344.077332,572.800476 327.534058,589.481201 311.024536,606.195312 
	C309.880280,607.353760 308.173492,608.724365 308.114502,610.057678 
	C307.816406,616.797180 307.977448,623.557007 307.977448,630.552124 
	C310.317932,630.668091 311.954468,630.819885 313.591003,630.820129 
	C390.902069,630.831726 468.213226,630.796204 545.524109,630.917603 
	C549.997253,630.924622 551.605286,629.811951 551.554199,625.110779 
	C551.329712,604.452515 551.589417,583.788574 551.300476,563.131897 
	C551.261902,560.371338 549.755249,556.996094 547.808044,554.996399 
	C529.559570,536.255188 511.069946,517.748779 492.636383,499.188049 
	C491.633667,498.178436 490.509125,497.289795 488.885132,495.852722 
	C464.800232,520.635132 440.930542,545.196106 417.170807,569.643921 
	C423.372192,576.178589 430.071014,583.237488 436.996002,590.534607 
	C431.816010,591.098511 427.380341,591.304871 423.064972,586.890503 
	C408.974854,572.477112 394.400482,558.536804 379.998077,544.429199 
	C378.735596,543.192505 377.368408,542.062683 376.044800,540.878723 
	C370.816986,546.034607 365.963196,550.821594 360.612518,556.111694 
z"/>
<path fill="#579F8B" opacity="1.000000" stroke="none" 
	d="
M488.000061,662.823242 
	C513.280884,662.823242 538.061707,662.823242 562.661377,662.823242 
	C563.054077,663.890808 563.322937,664.342407 563.380554,664.819519 
	C564.561462,674.594177 564.331055,674.850464 554.526428,674.850525 
	C470.891174,674.850647 387.255890,674.850647 303.620636,674.850586 
	C301.320892,674.850586 299.021149,674.850525 296.880707,674.850525 
	C296.414825,673.950562 296.040375,673.538818 295.994812,673.093384 
	C294.944061,662.824951 294.950684,662.823547 305.068512,662.823547 
	C365.879028,662.823303 426.689514,662.823364 488.000061,662.823242 
z"/>
<path fill="#5AA08C" opacity="1.000000" stroke="none" 
	d="
M400.999817,702.572632 
	C367.843567,702.572571 335.187347,702.575745 302.531128,702.570190 
	C296.486206,702.569153 293.299622,697.587891 296.175293,692.304321 
	C296.669556,691.396179 298.636047,690.911133 299.936371,690.883484 
	C306.597931,690.741455 313.264069,690.810608 319.928589,690.810486 
	C360.748871,690.809692 401.569153,690.809875 442.389435,690.810303 
	C453.010040,690.810364 453.205566,691.051208 451.171356,702.572815 
	C434.717682,702.572815 418.108734,702.572815 400.999817,702.572632 
z"/>
<path fill="#F5C5BE" opacity="1.000000" stroke="none" 
	d="
M360.860962,555.860168 
	C365.963196,550.821594 370.816986,546.034607 376.044800,540.878723 
	C377.368408,542.062683 378.735596,543.192505 379.998077,544.429199 
	C394.400482,558.536804 408.974854,572.477112 423.064972,586.890503 
	C427.380341,591.304871 431.816010,591.098511 436.996002,590.534607 
	C430.071014,583.237488 423.372192,576.178589 417.170807,569.643921 
	C440.930542,545.196106 464.800232,520.635132 488.885132,495.852722 
	C490.509125,497.289795 491.633667,498.178436 492.636383,499.188049 
	C511.069946,517.748779 529.559570,536.255188 547.808044,554.996399 
	C549.755249,556.996094 551.261902,560.371338 551.300476,563.131897 
	C551.589417,583.788574 551.329712,604.452515 551.554199,625.110779 
	C551.605286,629.811951 549.997253,630.924622 545.524109,630.917603 
	C468.213226,630.796204 390.902069,630.831726 313.591003,630.820129 
	C311.954468,630.819885 310.317932,630.668091 307.977448,630.552124 
	C307.977448,623.557007 307.816406,616.797180 308.114502,610.057678 
	C308.173492,608.724365 309.880280,607.353760 311.024536,606.195312 
	C327.534058,589.481201 344.077332,572.800476 360.860962,555.860168 
z"/>
<text x="50%" y="90%" font-family="Arial" font-size="90" fill="#ffffff" text-anchor="middle">
        Picture Hub
    </text>
</svg>